<?xml version="1.0" standalone="no"?>
<!DOCTYPE svg PUBLIC "-//W3C//DTD SVG 20010904//EN"
 "http://www.w3.org/TR/2001/REC-SVG-20010904/DTD/svg10.dtd">
<svg version="1.0" xmlns="http://www.w3.org/2000/svg"
 width="134.000000pt" height="134.000000pt" viewBox="0 0 134.000000 134.000000"
 preserveAspectRatio="xMidYMid meet">
<metadata>
Created by potrace 1.14, written by Peter Selinger 2001-2017
</metadata>
<g transform="translate(0.000000,134.000000) scale(0.100000,-0.100000)"
fill="#000000" stroke="none">
<path d="M423 1042 c-3 -14 -6 -81 -7 -151 l-1 -126 -96 -1 c-53 0 -104 -4
-113 -7 -14 -6 -16 -34 -16 -256 0 -231 1 -251 18 -260 10 -6 24 -6 32 -1 8 5
19 6 24 2 14 -8 86 -10 81 -2 -5 9 27 6 43 -4 6 -4 16 -4 22 -1 5 3 10 0 10
-8 0 -8 7 -18 16 -21 9 -3 116 -6 239 -6 208 0 225 1 237 19 12 16 26 18 116
17 56 0 102 2 102 6 0 5 6 7 13 5 9 -1 13 59 14 271 3 253 2 272 -15 273 -9 1
-60 3 -112 4 -52 1 -99 3 -105 4 -6 1 -10 47 -9 119 1 64 -3 124 -7 132 -6 13
-44 15 -244 15 l-236 1 -6 -24z"/>
</g>
</svg>
